<?xml version="1.0" encoding="windows-1252" standalone="no"?>
<svg xmlns="http://www.w3.org/2000/svg" xmlns:xlink="http://www.w3.org/1999/xlink" contentStyleType="text/css" height="855px" preserveAspectRatio="none" style="width:658px;height:855px;background:#FFFFFF;" version="1.1" viewBox="0 0 658 855" width="658px" zoomAndPan="magnify"><script xmlns=""/><defs/><g><line style="stroke:none;stroke-width:1.5;" x1="88" x2="304.5" y1="10" y2="10"/><rect fill="#F1F1F1" height="33.9688" rx="12.5" ry="12.5" style="stroke:#181818;stroke-width:0.5;" width="154" x="11" y="31.5"/><text fill="#000000" font-family="sans-serif" font-size="12" lengthAdjust="spacing" textLength="134" x="21" y="52.6387">User Inbound Request</text><rect fill="#F1F1F1" height="33.9688" rx="12.5" ry="12.5" style="stroke:#181818;stroke-width:0.5;" width="223" x="193" y="31.5"/><text fill="#000000" font-family="sans-serif" font-size="12" lengthAdjust="spacing" textLength="203" x="203" y="52.6387">Offchain Worker Inbound Request</text><line style="stroke:#181818;stroke-width:1.5;" x1="88" x2="304.5" y1="85.4688" y2="85.4688"/><rect fill="#F1F1F1" height="33.9688" rx="12.5" ry="12.5" style="stroke:#181818;stroke-width:0.5;" width="288" x="69.5" y="159.4375"/><text fill="#000000" font-family="sans-serif" font-size="12" lengthAdjust="spacing" textLength="268" x="79.5" y="180.5762">Transactions validated by calling the runtime</text><rect fill="#FFC0CB" height="33.9688" rx="12.5" ry="12.5" style="stroke:#181818;stroke-width:0.5;" width="214" x="106.5" y="261.8086"/><text fill="#000000" font-family="sans-serif" font-size="12" lengthAdjust="spacing" textLength="194" x="116.5" y="282.9473">Invalid transactions are rejected</text><polygon fill="#F1F1F1" points="157.5,213.4063,269.5,213.4063,281.5,225.4063,269.5,237.4063,157.5,237.4063,145.5,225.4063,157.5,213.4063" style="stroke:#181818;stroke-width:0.5;"/><text fill="#000000" font-family="sans-serif" font-size="11" lengthAdjust="spacing" textLength="14" x="217.5" y="247.6167">no</text><text fill="#000000" font-family="sans-serif" font-size="11" lengthAdjust="spacing" textLength="112" x="157.5" y="229.2144">Is transaction valid?</text><text fill="#000000" font-family="sans-serif" font-size="11" lengthAdjust="spacing" textLength="21" x="281.5" y="222.812">yes</text><rect fill="#F1F1F1" height="33.9688" rx="12.5" ry="12.5" style="stroke:#181818;stroke-width:0.5;" width="251" x="88" y="337.7773"/><text fill="#000000" font-family="sans-serif" font-size="12" lengthAdjust="spacing" textLength="231" x="98" y="358.916">Transactions gossiped to other nodes</text><rect fill="#F1F1F1" height="47.9375" rx="12.5" ry="12.5" style="stroke:#181818;stroke-width:0.5;" width="208" x="109.5" y="405.1797"/><text fill="#000000" font-family="sans-serif" font-size="12" lengthAdjust="spacing" textLength="188" x="119.5" y="426.3184">Valid transactions waiting to be</text><text fill="#000000" font-family="sans-serif" font-size="12" lengthAdjust="spacing" textLength="154" x="119.5" y="440.2871">included into a new block</text><rect fill="#F1F1F1" height="75.875" rx="12.5" ry="12.5" style="stroke:#181818;stroke-width:0.5;" width="243" x="92" y="473.1172"/><text fill="#000000" font-family="sans-serif" font-size="12" lengthAdjust="spacing" textLength="215" x="102" y="494.2559">Transactions are ordered based on</text><text fill="#000000" font-family="sans-serif" font-size="12" lengthAdjust="spacing" textLength="219" x="102" y="508.2246">tags and priority(Block including this</text><text fill="#000000" font-family="sans-serif" font-size="12" lengthAdjust="spacing" textLength="192" x="102" y="522.1934">transaction is authored will calls</text><text fill="#000000" font-family="sans-serif" font-size="12" lengthAdjust="spacing" textLength="89" x="102" y="536.1621">to the runtime)</text><rect fill="#F1F1F1" height="33.9688" rx="12.5" ry="12.5" style="stroke:#181818;stroke-width:0.5;" width="352" x="37.5" y="568.9922"/><text fill="#000000" font-family="sans-serif" font-size="12" lengthAdjust="spacing" textLength="332" x="47.5" y="590.1309">Block with this transaction is announced to the network</text><rect fill="#F1F1F1" height="33.9688" rx="12.5" ry="12.5" style="stroke:#181818;stroke-width:0.5;" width="223" x="102" y="622.9609"/><text fill="#000000" font-family="sans-serif" font-size="12" lengthAdjust="spacing" textLength="203" x="112" y="644.0996">Block is imported by other nodes</text><rect fill="#F1F1F1" height="33.9688" rx="12.5" ry="12.5" style="stroke:#181818;stroke-width:0.5;" width="283" x="72" y="105.4688"/><text fill="#000000" font-family="sans-serif" font-size="12" lengthAdjust="spacing" textLength="259" x="86" y="126.6074">Tx Pool: Transactions waiting to be verified</text><polygon fill="#F1F1F1" points="125,676.9297,302,676.9297,314,688.9297,302,700.9297,125,700.9297,113,688.9297,125,676.9297" style="stroke:#181818;stroke-width:0.5;"/><text fill="#000000" font-family="sans-serif" font-size="11" lengthAdjust="spacing" textLength="177" x="125" y="692.7378">Block added to the best chain?</text><text fill="#000000" font-family="sans-serif" font-size="11" lengthAdjust="spacing" textLength="14" x="314" y="686.3354">no</text><rect fill="#F1F1F1" height="47.9375" rx="12.5" ry="12.5" style="stroke:#181818;stroke-width:0.5;" width="234" x="413.5" y="381.7461"/><text fill="#000000" font-family="sans-serif" font-size="12" lengthAdjust="spacing" textLength="214" x="423.5" y="402.8848">Transactions gossiped or returned,</text><text fill="#000000" font-family="sans-serif" font-size="12" lengthAdjust="spacing" textLength="141" x="423.5" y="416.8535">add back to the tx pool</text><rect fill="#F1F1F1" height="47.9375" rx="12.5" ry="12.5" style="stroke:#181818;stroke-width:0.5;" width="264" x="81.5" y="742.3286"/><text fill="#000000" font-family="sans-serif" font-size="12" lengthAdjust="spacing" textLength="244" x="91.5" y="763.4673">Other nodes execute these transactions</text><text fill="#000000" font-family="sans-serif" font-size="12" lengthAdjust="spacing" textLength="208" x="91.5" y="777.436">&amp; update the global on-chain state</text><rect fill="#F1F1F1" height="33.9688" rx="12.5" ry="12.5" style="stroke:#181818;stroke-width:0.5;" width="107" x="160" y="810.2661"/><text fill="#000000" font-family="sans-serif" font-size="12" lengthAdjust="spacing" textLength="87" x="170" y="831.4048">Block finalized</text><line style="stroke:#181818;stroke-width:1.0;" x1="88" x2="88" y1="65.4688" y2="85.4688"/><polygon fill="#181818" points="84,75.4688,88,85.4688,92,75.4688,88,79.4688" style="stroke:#181818;stroke-width:1.0;"/><line style="stroke:#181818;stroke-width:1.0;" x1="304.5" x2="304.5" y1="65.4688" y2="85.4688"/><polygon fill="#181818" points="300.5,75.4688,304.5,85.4688,308.5,75.4688,304.5,79.4688" style="stroke:#181818;stroke-width:1.0;"/><line style="stroke:#181818;stroke-width:1.0;" x1="213.5" x2="213.5" y1="237.4063" y2="261.8086"/><polygon fill="#181818" points="209.5,251.8086,213.5,261.8086,217.5,251.8086,213.5,255.8086" style="stroke:#181818;stroke-width:1.0;"/><line style="stroke:#181818;stroke-width:1.0;" x1="281.5" x2="330.5" y1="225.4063" y2="225.4063"/><polygon fill="#181818" points="326.5,265.793,330.5,275.793,334.5,265.793,330.5,269.793" style="stroke:#181818;stroke-width:1.0;"/><line style="stroke:#181818;stroke-width:1.0;" x1="330.5" x2="330.5" y1="225.4063" y2="317.7773"/><line style="stroke:#181818;stroke-width:1.0;" x1="330.5" x2="213.5" y1="317.7773" y2="317.7773"/><line style="stroke:#181818;stroke-width:1.0;" x1="213.5" x2="213.5" y1="317.7773" y2="337.7773"/><polygon fill="#181818" points="209.5,327.7773,213.5,337.7773,217.5,327.7773,213.5,331.7773" style="stroke:#181818;stroke-width:1.0;"/><line style="stroke:#181818;stroke-width:1.0;" x1="213.5" x2="213.5" y1="193.4063" y2="213.4063"/><polygon fill="#181818" points="209.5,203.4063,213.5,213.4063,217.5,203.4063,213.5,207.4063" style="stroke:#181818;stroke-width:1.0;"/><line style="stroke:#181818;stroke-width:1.0;" x1="213.5" x2="213.5" y1="371.7461" y2="405.1797"/><polygon fill="#181818" points="209.5,395.1797,213.5,405.1797,217.5,395.1797,213.5,399.1797" style="stroke:#181818;stroke-width:1.0;"/><line style="stroke:#181818;stroke-width:1.0;" x1="213.5" x2="213.5" y1="453.1172" y2="473.1172"/><polygon fill="#181818" points="209.5,463.1172,213.5,473.1172,217.5,463.1172,213.5,467.1172" style="stroke:#181818;stroke-width:1.0;"/><line style="stroke:#181818;stroke-width:1.0;" x1="213.5" x2="213.5" y1="548.9922" y2="568.9922"/><polygon fill="#181818" points="209.5,558.9922,213.5,568.9922,217.5,558.9922,213.5,562.9922" style="stroke:#181818;stroke-width:1.0;"/><line style="stroke:#181818;stroke-width:1.0;" x1="213.5" x2="213.5" y1="602.9609" y2="622.9609"/><polygon fill="#181818" points="209.5,612.9609,213.5,622.9609,217.5,612.9609,213.5,616.9609" style="stroke:#181818;stroke-width:1.0;"/><line style="stroke:#181818;stroke-width:1.0;" x1="213.5" x2="213.5" y1="139.4375" y2="159.4375"/><polygon fill="#181818" points="209.5,149.4375,213.5,159.4375,217.5,149.4375,213.5,153.4375" style="stroke:#181818;stroke-width:1.0;"/><line style="stroke:#181818;stroke-width:1.0;" x1="314" x2="530.5" y1="688.9297" y2="688.9297"/><line style="stroke:#181818;stroke-width:1.0;" x1="530.5" x2="530.5" y1="429.6836" y2="688.9297"/><polygon fill="#181818" points="526.5,439.6836,530.5,429.6836,534.5,439.6836,530.5,435.6836" style="stroke:#181818;stroke-width:1.0;"/><line style="stroke:#181818;stroke-width:1.0;" x1="530.5" x2="530.5" y1="122.4531" y2="381.7461"/><line style="stroke:#181818;stroke-width:1.0;" x1="530.5" x2="355" y1="122.4531" y2="122.4531"/><polygon fill="#181818" points="365,118.4531,355,122.4531,365,126.4531,361,122.4531" style="stroke:#181818;stroke-width:1.0;"/><line style="stroke:#181818;stroke-width:1.0;" x1="213.5" x2="213.5" y1="656.9297" y2="676.9297"/><polygon fill="#181818" points="209.5,666.9297,213.5,676.9297,217.5,666.9297,213.5,670.9297" style="stroke:#181818;stroke-width:1.0;"/><line style="stroke:#181818;stroke-width:1.0;" x1="213.5" x2="213.5" y1="86.9688" y2="105.4688"/><polygon fill="#181818" points="209.5,95.4688,213.5,105.4688,217.5,95.4688,213.5,99.4688" style="stroke:#181818;stroke-width:1.0;"/><line style="stroke:#181818;stroke-width:1.0;" x1="213.5" x2="213.5" y1="700.9297" y2="742.3286"/><polygon fill="#181818" points="209.5,732.3286,213.5,742.3286,217.5,732.3286,213.5,736.3286" style="stroke:#181818;stroke-width:1.0;"/><text fill="#000000" font-family="sans-serif" font-size="11" lengthAdjust="spacing" textLength="21" x="217.5" y="722.2344">yes</text><line style="stroke:#181818;stroke-width:1.0;" x1="213.5" x2="213.5" y1="790.2661" y2="810.2661"/><polygon fill="#181818" points="209.5,800.2661,213.5,810.2661,217.5,800.2661,213.5,804.2661" style="stroke:#181818;stroke-width:1.0;"/><!--SRC=[RLBBRjj03BplLn0eKDX0_GCsa0Az-PGYIDj3aGEbfIHM6wwwIqLslhvSoV2hkHXUaJES8ISFWTK1mEPtnzwJl6mUodFx8rE2lLHn50zFz7Uah3kNIpjWYomVWHwRfkwi1hzYwZ_2aprc3fTe8DGjF1_WUup1_YIKZBLob0mJihAqe14gWZTAt33vdTlUTBrXO8zA7geZr1Z23Ea8qYZAhxHptC1gdq4lg0NqTLtw15OIrwRyqy3IR_SorwwxCs0oElf3jPRv03s7u2XaWjMHyheuukPELnjpvi5acVneSn98z9HD_i__1znQTInr6BrXMUmBWj04LOXrVs- -28l9KohsCTklcNEAhPLioqFYc5YFgsy530ljiX_ErdUr4NlZg5qiJ9FPcrTPUkBrCjScOE6QMBk5vfv5nCvTByOBL4WdIy8PQJtyEiHqEjdDRYgi-mcJlql2UPSnsHrqJ4B-YqDVJ1lZQP0UOB0KxKwnWgdZO1TQfbhpHL9bEOGvf9O1qpCdOFDmdC_pU144TA1wL2eWE_RroTnd68UIkvcm3R72OClVBD7FQfMpuuR5JlvksVa7]--></g></svg>